
<svg xmlns="http://www.w3.org/2000/svg" version="1.1" xmlns:xlink="http://www.w3.org/1999/xlink" xmlns:svgjs="http://svgjs.com/svgjs" width="1440" height="560" preserveAspectRatio="none" viewBox="0 0 1440 560"><g mask="url(&quot;#SvgjsMask1000&quot;)" fill="none"><rect width="1440" height="560" x="0" y="0" fill="#0e2a47"></rect><path d="M-62.71 547.81L-62.71 547.81" stroke="#132e65" stroke-width="1.5"></path><path d="M-62.71 547.81L71.63 543.04" stroke="#132e65" stroke-width="1.5"></path><path d="M-62.71 547.81L100.39 669.16" stroke="#132e65" stroke-width="1.5"></path><path d="M-62.71 547.81L93.46 378.52" stroke="#132e65" stroke-width="1.5"></path><path d="M-62.71 547.81L225.67 646.35" stroke="#132e65" stroke-width="1.5"></path><path d="M-62.71 547.81L244.56 511.93" stroke="#132e65" stroke-width="1.5"></path><path d="M-62.71 547.81L340.78 526.03" stroke="#132e65" stroke-width="1.5"></path><path d="M93.46 378.52L93.46 378.52" stroke="#132e65" stroke-width="1.5"></path><path d="M93.46 378.52L71.63 543.04" stroke="#132e65" stroke-width="1.5"></path><path d="M71.63 543.04L71.63 543.04" stroke="#132e65" stroke-width="1.5"></path><path d="M71.63 543.04L100.39 669.16" stroke="#132e65" stroke-width="1.5"></path><path d="M71.63 543.04L244.56 511.93" stroke="#132e65" stroke-width="1.5"></path><path d="M71.63 543.04L225.67 646.35" stroke="#132e65" stroke-width="1.5"></path><path d="M71.63 543.04L340.78 526.03" stroke="#132e65" stroke-width="1.5"></path><path d="M100.39 669.16L100.39 669.16" stroke="#132e65" stroke-width="1.5"></path><path d="M100.39 669.16L225.67 646.35" stroke="#132e65" stroke-width="1.5"></path><path d="M100.39 669.16L244.56 511.93" stroke="#132e65" stroke-width="1.5"></path><path d="M244.56 511.93L244.56 511.93" stroke="#132e65" stroke-width="1.5"></path><path d="M244.56 511.93L340.78 526.03" stroke="#132e65" stroke-width="1.5"></path><path d="M244.56 511.93L225.67 646.35" stroke="#132e65" stroke-width="1.5"></path><path d="M225.67 646.35L225.67 646.35" stroke="#132e65" stroke-width="1.5"></path><path d="M225.67 646.35L340.4 674.25" stroke="#132e65" stroke-width="1.5"></path><path d="M225.67 646.35L340.78 526.03" stroke="#132e65" stroke-width="1.5"></path><path d="M405.86 401.8L405.86 401.8" stroke="#132e65" stroke-width="1.5"></path><path d="M405.86 401.8L530.04 410" stroke="#132e65" stroke-width="1.5"></path><path d="M405.86 401.8L340.78 526.03" stroke="#132e65" stroke-width="1.5"></path><path d="M405.86 401.8L521.11 495.8" stroke="#132e65" stroke-width="1.5"></path><path d="M405.86 401.8L244.56 511.93" stroke="#132e65" stroke-width="1.5"></path><path d="M340.78 526.03L340.78 526.03" stroke="#132e65" stroke-width="1.5"></path><path d="M340.78 526.03L340.4 674.25" stroke="#132e65" stroke-width="1.5"></path><path d="M340.78 526.03L521.11 495.8" stroke="#132e65" stroke-width="1.5"></path><path d="M340.78 526.03L530.04 410" stroke="#132e65" stroke-width="1.5"></path><path d="M340.4 674.25L340.4 674.25" stroke="#132e65" stroke-width="1.5"></path><path d="M340.4 674.25L495.57 703.83" stroke="#132e65" stroke-width="1.5"></path><path d="M340.4 674.25L244.56 511.93" stroke="#132e65" stroke-width="1.5"></path><path d="M530.04 410L530.04 410" stroke="#132e65" stroke-width="1.5"></path><path d="M530.04 410L521.11 495.8" stroke="#132e65" stroke-width="1.5"></path><path d="M530.04 410L700.8 342.64" stroke="#132e65" stroke-width="1.5"></path><path d="M530.04 410L641.59 245.45" stroke="#132e65" stroke-width="1.5"></path><path d="M530.04 410L688.57 559.74" stroke="#132e65" stroke-width="1.5"></path><path d="M521.11 495.8L521.11 495.8" stroke="#132e65" stroke-width="1.5"></path><path d="M521.11 495.8L688.57 559.74" stroke="#132e65" stroke-width="1.5"></path><path d="M495.57 703.83L495.57 703.83" stroke="#132e65" stroke-width="1.5"></path><path d="M495.57 703.83L521.11 495.8" stroke="#132e65" stroke-width="1.5"></path><path d="M495.57 703.83L709.74 650.79" stroke="#132e65" stroke-width="1.5"></path><path d="M495.57 703.83L340.78 526.03" stroke="#132e65" stroke-width="1.5"></path><path d="M495.57 703.83L688.57 559.74" stroke="#132e65" stroke-width="1.5"></path><path d="M495.57 703.83L225.67 646.35" stroke="#132e65" stroke-width="1.5"></path><path d="M641.59 245.45L641.59 245.45" stroke="#132e65" stroke-width="1.5"></path><path d="M641.59 245.45L700.8 342.64" stroke="#132e65" stroke-width="1.5"></path><path d="M641.59 245.45L788.13 343.26" stroke="#132e65" stroke-width="1.5"></path><path d="M641.59 245.45L839.63 232.54" stroke="#132e65" stroke-width="1.5"></path><path d="M700.8 342.64L700.8 342.64" stroke="#132e65" stroke-width="1.5"></path><path d="M700.8 342.64L788.13 343.26" stroke="#132e65" stroke-width="1.5"></path><path d="M688.57 559.74L688.57 559.74" stroke="#132e65" stroke-width="1.5"></path><path d="M688.57 559.74L709.74 650.79" stroke="#132e65" stroke-width="1.5"></path><path d="M688.57 559.74L796.48 510.08" stroke="#132e65" stroke-width="1.5"></path><path d="M709.74 650.79L709.74 650.79" stroke="#132e65" stroke-width="1.5"></path><path d="M709.74 650.79L851.57 658.51" stroke="#132e65" stroke-width="1.5"></path><path d="M709.74 650.79L796.48 510.08" stroke="#132e65" stroke-width="1.5"></path><path d="M709.74 650.79L521.11 495.8" stroke="#132e65" stroke-width="1.5"></path><path d="M709.74 650.79L989.58 689.97" stroke="#132e65" stroke-width="1.5"></path><path d="M839.63 232.54L839.63 232.54" stroke="#132e65" stroke-width="1.5"></path><path d="M839.63 232.54L950.23 227.95" stroke="#132e65" stroke-width="1.5"></path><path d="M839.63 232.54L788.13 343.26" stroke="#132e65" stroke-width="1.5"></path><path d="M839.63 232.54L944.65 100.95" stroke="#132e65" stroke-width="1.5"></path><path d="M788.13 343.26L788.13 343.26" stroke="#132e65" stroke-width="1.5"></path><path d="M796.48 510.08L796.48 510.08" stroke="#132e65" stroke-width="1.5"></path><path d="M796.48 510.08L851.57 658.51" stroke="#132e65" stroke-width="1.5"></path><path d="M796.48 510.08L788.13 343.26" stroke="#132e65" stroke-width="1.5"></path><path d="M851.57 658.51L851.57 658.51" stroke="#132e65" stroke-width="1.5"></path><path d="M851.57 658.51L989.58 689.97" stroke="#132e65" stroke-width="1.5"></path><path d="M1004.5 -88.06L1004.5 -88.06" stroke="#132e65" stroke-width="1.5"></path><path d="M1004.5 -88.06L1104.53 -109.41" stroke="#132e65" stroke-width="1.5"></path><path d="M1004.5 -88.06L944.65 100.95" stroke="#132e65" stroke-width="1.5"></path><path d="M944.65 100.95L944.65 100.95" stroke="#132e65" stroke-width="1.5"></path><path d="M944.65 100.95L950.23 227.95" stroke="#132e65" stroke-width="1.5"></path><path d="M944.65 100.95L1130.64 72.07" stroke="#132e65" stroke-width="1.5"></path><path d="M944.65 100.95L1104.53 -109.41" stroke="#132e65" stroke-width="1.5"></path><path d="M950.23 227.95L950.23 227.95" stroke="#132e65" stroke-width="1.5"></path><path d="M950.23 227.95L1008.59 358.78" stroke="#132e65" stroke-width="1.5"></path><path d="M1008.59 358.78L1008.59 358.78" stroke="#132e65" stroke-width="1.5"></path><path d="M1008.59 358.78L978.61 508.24" stroke="#132e65" stroke-width="1.5"></path><path d="M978.61 508.24L978.61 508.24" stroke="#132e65" stroke-width="1.5"></path><path d="M978.61 508.24L1103.92 508.74" stroke="#132e65" stroke-width="1.5"></path><path d="M989.58 689.97L989.58 689.97" stroke="#132e65" stroke-width="1.5"></path><path d="M989.58 689.97L1128.24 697" stroke="#132e65" stroke-width="1.5"></path><path d="M989.58 689.97L978.61 508.24" stroke="#132e65" stroke-width="1.5"></path><path d="M1104.53 -109.41L1104.53 -109.41" stroke="#132e65" stroke-width="1.5"></path><path d="M1104.53 -109.41L1254.65 -53.35" stroke="#132e65" stroke-width="1.5"></path><path d="M1104.53 -109.41L1130.64 72.07" stroke="#132e65" stroke-width="1.5"></path><path d="M1104.53 -109.41L1272.78 67.71" stroke="#132e65" stroke-width="1.5"></path><path d="M1104.53 -109.41L1417.42 -71.95" stroke="#132e65" stroke-width="1.5"></path><path d="M1130.64 72.07L1130.64 72.07" stroke="#132e65" stroke-width="1.5"></path><path d="M1130.64 72.07L1272.78 67.71" stroke="#132e65" stroke-width="1.5"></path><path d="M1130.64 72.07L1254.65 -53.35" stroke="#132e65" stroke-width="1.5"></path><path d="M1154.1 406.37L1154.1 406.37" stroke="#132e65" stroke-width="1.5"></path><path d="M1154.1 406.37L1103.92 508.74" stroke="#132e65" stroke-width="1.5"></path><path d="M1154.1 406.37L1008.59 358.78" stroke="#132e65" stroke-width="1.5"></path><path d="M1154.1 406.37L1304.59 374.01" stroke="#132e65" stroke-width="1.5"></path><path d="M1154.1 406.37L1289.7 523.59" stroke="#132e65" stroke-width="1.5"></path><path d="M1154.1 406.37L978.61 508.24" stroke="#132e65" stroke-width="1.5"></path><path d="M1154.1 406.37L1268.39 236.91" stroke="#132e65" stroke-width="1.5"></path><path d="M1103.92 508.74L1103.92 508.74" stroke="#132e65" stroke-width="1.5"></path><path d="M1103.92 508.74L1008.59 358.78" stroke="#132e65" stroke-width="1.5"></path><path d="M1128.24 697L1128.24 697" stroke="#132e65" stroke-width="1.5"></path><path d="M1128.24 697L1295.27 666.38" stroke="#132e65" stroke-width="1.5"></path><path d="M1128.24 697L1103.92 508.74" stroke="#132e65" stroke-width="1.5"></path><path d="M1128.24 697L1289.7 523.59" stroke="#132e65" stroke-width="1.5"></path><path d="M1128.24 697L978.61 508.24" stroke="#132e65" stroke-width="1.5"></path><path d="M1128.24 697L851.57 658.51" stroke="#132e65" stroke-width="1.5"></path><path d="M1254.65 -53.35L1254.65 -53.35" stroke="#132e65" stroke-width="1.5"></path><path d="M1254.65 -53.35L1272.78 67.71" stroke="#132e65" stroke-width="1.5"></path><path d="M1254.65 -53.35L1417.42 -71.95" stroke="#132e65" stroke-width="1.5"></path><path d="M1272.78 67.71L1272.78 67.71" stroke="#132e65" stroke-width="1.5"></path><path d="M1272.78 67.71L1268.39 236.91" stroke="#132e65" stroke-width="1.5"></path><path d="M1272.78 67.71L1442.78 84" stroke="#132e65" stroke-width="1.5"></path><path d="M1268.39 236.91L1268.39 236.91" stroke="#132e65" stroke-width="1.5"></path><path d="M1268.39 236.91L1304.59 374.01" stroke="#132e65" stroke-width="1.5"></path><path d="M1304.59 374.01L1304.59 374.01" stroke="#132e65" stroke-width="1.5"></path><path d="M1304.59 374.01L1427.8 356.46" stroke="#132e65" stroke-width="1.5"></path><path d="M1304.59 374.01L1389.08 496.76" stroke="#132e65" stroke-width="1.5"></path><path d="M1289.7 523.59L1289.7 523.59" stroke="#132e65" stroke-width="1.5"></path><path d="M1289.7 523.59L1389.08 496.76" stroke="#132e65" stroke-width="1.5"></path><path d="M1289.7 523.59L1295.27 666.38" stroke="#132e65" stroke-width="1.5"></path><path d="M1289.7 523.59L1304.59 374.01" stroke="#132e65" stroke-width="1.5"></path><path d="M1289.7 523.59L1103.92 508.74" stroke="#132e65" stroke-width="1.5"></path><path d="M1289.7 523.59L1426.9 658.59" stroke="#132e65" stroke-width="1.5"></path><path d="M1295.27 666.38L1295.27 666.38" stroke="#132e65" stroke-width="1.5"></path><path d="M1295.27 666.38L1426.9 658.59" stroke="#132e65" stroke-width="1.5"></path><path d="M1295.27 666.38L1389.08 496.76" stroke="#132e65" stroke-width="1.5"></path><path d="M1295.27 666.38L1542.96 664.15" stroke="#132e65" stroke-width="1.5"></path><path d="M1417.42 -71.95L1417.42 -71.95" stroke="#132e65" stroke-width="1.5"></path><path d="M1417.42 -71.95L1442.78 84" stroke="#132e65" stroke-width="1.5"></path><path d="M1417.42 -71.95L1605.66 -95.09" stroke="#132e65" stroke-width="1.5"></path><path d="M1417.42 -71.95L1272.78 67.71" stroke="#132e65" stroke-width="1.5"></path><path d="M1442.78 84L1442.78 84" stroke="#132e65" stroke-width="1.5"></path><path d="M1442.78 84L1443.19 189.33" stroke="#132e65" stroke-width="1.5"></path><path d="M1442.78 84L1553.99 86.01" stroke="#132e65" stroke-width="1.5"></path><path d="M1443.19 189.33L1443.19 189.33" stroke="#132e65" stroke-width="1.5"></path><path d="M1443.19 189.33L1569.81 203.26" stroke="#132e65" stroke-width="1.5"></path><path d="M1443.19 189.33L1553.99 86.01" stroke="#132e65" stroke-width="1.5"></path><path d="M1443.19 189.33L1427.8 356.46" stroke="#132e65" stroke-width="1.5"></path><path d="M1443.19 189.33L1268.39 236.91" stroke="#132e65" stroke-width="1.5"></path><path d="M1443.19 189.33L1272.78 67.71" stroke="#132e65" stroke-width="1.5"></path><path d="M1427.8 356.46L1427.8 356.46" stroke="#132e65" stroke-width="1.5"></path><path d="M1427.8 356.46L1389.08 496.76" stroke="#132e65" stroke-width="1.5"></path><path d="M1389.08 496.76L1389.08 496.76" stroke="#132e65" stroke-width="1.5"></path><path d="M1389.08 496.76L1426.9 658.59" stroke="#132e65" stroke-width="1.5"></path><path d="M1426.9 658.59L1426.9 658.59" stroke="#132e65" stroke-width="1.5"></path><path d="M1426.9 658.59L1542.96 664.15" stroke="#132e65" stroke-width="1.5"></path><path d="M1605.66 -95.09L1605.66 -95.09" stroke="#132e65" stroke-width="1.5"></path><path d="M1605.66 -95.09L1553.99 86.01" stroke="#132e65" stroke-width="1.5"></path><path d="M1605.66 -95.09L1442.78 84" stroke="#132e65" stroke-width="1.5"></path><path d="M1605.66 -95.09L1569.81 203.26" stroke="#132e65" stroke-width="1.5"></path><path d="M1605.66 -95.09L1443.19 189.33" stroke="#132e65" stroke-width="1.5"></path><path d="M1553.99 86.01L1553.99 86.01" stroke="#132e65" stroke-width="1.5"></path><path d="M1553.99 86.01L1569.81 203.26" stroke="#132e65" stroke-width="1.5"></path><path d="M1569.81 203.26L1569.81 203.26" stroke="#132e65" stroke-width="1.5"></path><path d="M1569.81 203.26L1592.11 353.14" stroke="#132e65" stroke-width="1.5"></path><path d="M1592.11 353.14L1592.11 353.14" stroke="#132e65" stroke-width="1.5"></path><path d="M1592.11 353.14L1427.8 356.46" stroke="#132e65" stroke-width="1.5"></path><path d="M1592.11 353.14L1600.77 545.53" stroke="#132e65" stroke-width="1.5"></path><path d="M1592.11 353.14L1443.19 189.33" stroke="#132e65" stroke-width="1.5"></path><path d="M1600.77 545.53L1600.77 545.53" stroke="#132e65" stroke-width="1.5"></path><path d="M1600.77 545.53L1542.96 664.15" stroke="#132e65" stroke-width="1.5"></path><path d="M1600.77 545.53L1426.9 658.59" stroke="#132e65" stroke-width="1.5"></path><path d="M1542.96 664.15L1542.96 664.15" stroke="#132e65" stroke-width="1.5"></path><path d="M1542.96 664.15L1389.08 496.76" stroke="#132e65" stroke-width="1.5"></path><path d="M1542.96 664.15L1289.7 523.59" stroke="#132e65" stroke-width="1.5"></path><circle r="5" cx="-62.71" cy="547.81" fill="#132e65"></circle><circle r="5" cx="93.46" cy="378.52" fill="#132e65"></circle><circle r="5" cx="71.63" cy="543.04" fill="#132e65"></circle><circle r="5" cx="100.39" cy="669.16" fill="#132e65"></circle><circle r="5" cx="244.56" cy="511.93" fill="#132e65"></circle><circle r="5" cx="225.67" cy="646.35" fill="#132e65"></circle><circle r="5" cx="405.86" cy="401.8" fill="#132e65"></circle><circle r="5" cx="340.78" cy="526.03" fill="#132e65"></circle><circle r="5" cx="340.4" cy="674.25" fill="#132e65"></circle><circle r="5" cx="530.04" cy="410" fill="#132e65"></circle><circle r="5" cx="521.11" cy="495.8" fill="#132e65"></circle><circle r="5" cx="495.57" cy="703.83" fill="#132e65"></circle><circle r="5" cx="641.59" cy="245.45" fill="#132e65"></circle><circle r="5" cx="700.8" cy="342.64" fill="#132e65"></circle><circle r="5" cx="688.57" cy="559.74" fill="#132e65"></circle><circle r="5" cx="709.74" cy="650.79" fill="#132e65"></circle><circle r="5" cx="839.63" cy="232.54" fill="#132e65"></circle><circle r="5" cx="788.13" cy="343.26" fill="#132e65"></circle><circle r="5" cx="796.48" cy="510.08" fill="#132e65"></circle><circle r="5" cx="851.57" cy="658.51" fill="#132e65"></circle><circle r="5" cx="1004.5" cy="-88.06" fill="#132e65"></circle><circle r="5" cx="944.65" cy="100.95" fill="#132e65"></circle><circle r="5" cx="950.23" cy="227.95" fill="#132e65"></circle><circle r="5" cx="1008.59" cy="358.78" fill="#132e65"></circle><circle r="5" cx="978.61" cy="508.24" fill="#132e65"></circle><circle r="5" cx="989.58" cy="689.97" fill="#132e65"></circle><circle r="5" cx="1104.53" cy="-109.41" fill="#132e65"></circle><circle r="5" cx="1130.64" cy="72.07" fill="#132e65"></circle><circle r="5" cx="1154.1" cy="406.37" fill="#132e65"></circle><circle r="5" cx="1103.92" cy="508.74" fill="#132e65"></circle><circle r="5" cx="1128.24" cy="697" fill="#132e65"></circle><circle r="5" cx="1254.65" cy="-53.35" fill="#132e65"></circle><circle r="5" cx="1272.78" cy="67.71" fill="#132e65"></circle><circle r="5" cx="1268.39" cy="236.91" fill="#132e65"></circle><circle r="5" cx="1304.59" cy="374.01" fill="#132e65"></circle><circle r="5" cx="1289.7" cy="523.59" fill="#132e65"></circle><circle r="5" cx="1295.27" cy="666.38" fill="#132e65"></circle><circle r="5" cx="1417.42" cy="-71.95" fill="#132e65"></circle><circle r="5" cx="1442.78" cy="84" fill="#132e65"></circle><circle r="5" cx="1443.19" cy="189.33" fill="#132e65"></circle><circle r="5" cx="1427.8" cy="356.46" fill="#132e65"></circle><circle r="5" cx="1389.08" cy="496.76" fill="#132e65"></circle><circle r="5" cx="1426.9" cy="658.59" fill="#132e65"></circle><circle r="5" cx="1605.66" cy="-95.09" fill="#132e65"></circle><circle r="5" cx="1553.99" cy="86.01" fill="#132e65"></circle><circle r="5" cx="1569.81" cy="203.26" fill="#132e65"></circle><circle r="5" cx="1592.11" cy="353.14" fill="#132e65"></circle><circle r="5" cx="1600.77" cy="545.53" fill="#132e65"></circle><circle r="5" cx="1542.96" cy="664.15" fill="#132e65"></circle><path d="M-45.52 503.4L-45.52 503.4" stroke="hsl(228.5, 77.2%, 51.5%)" stroke-width="1.5"></path><path d="M-45.52 503.4L38.98 517.13" stroke="hsl(228.5, 77.2%, 51.5%)" stroke-width="1.5"></path><path d="M-45.52 503.4L-61.4 665.89" stroke="hsl(228.5, 77.2%, 51.5%)" stroke-width="1.5"></path><path d="M-45.52 503.4L108.07 677.15" stroke="hsl(228.5, 77.2%, 51.5%)" stroke-width="1.5"></path><path d="M-61.4 665.89L-61.4 665.89" stroke="hsl(228.5, 77.2%, 51.5%)" stroke-width="1.5"></path><path d="M-61.4 665.89L108.07 677.15" stroke="hsl(228.5, 77.2%, 51.5%)" stroke-width="1.5"></path><path d="M-61.4 665.89L38.98 517.13" stroke="hsl(228.5, 77.2%, 51.5%)" stroke-width="1.5"></path><path d="M-61.4 665.89L223.13 705.82" stroke="hsl(228.5, 77.2%, 51.5%)" stroke-width="1.5"></path><path d="M197.17 501.17L197.17 501.17" stroke="hsl(228.5, 77.2%, 51.5%)" stroke-width="1.5"></path><path d="M197.17 501.17L38.98 517.13" stroke="hsl(228.5, 77.2%, 51.5%)" stroke-width="1.5"></path><path d="M197.17 501.17L382.66 536.81" stroke="hsl(228.5, 77.2%, 51.5%)" stroke-width="1.5"></path><path d="M223.13 705.82L223.13 705.82" stroke="hsl(228.5, 77.2%, 51.5%)" stroke-width="1.5"></path><path d="M223.13 705.82L108.07 677.15" stroke="hsl(228.5, 77.2%, 51.5%)" stroke-width="1.5"></path><path d="M223.13 705.82L391.75 693.67" stroke="hsl(228.5, 77.2%, 51.5%)" stroke-width="1.5"></path><path d="M223.13 705.82L197.17 501.17" stroke="hsl(228.5, 77.2%, 51.5%)" stroke-width="1.5"></path><path d="M511.18 554.63L511.18 554.63" stroke="hsl(228.5, 77.2%, 51.5%)" stroke-width="1.5"></path><path d="M511.18 554.63L382.66 536.81" stroke="hsl(228.5, 77.2%, 51.5%)" stroke-width="1.5"></path><path d="M511.18 554.63L693.31 559.68" stroke="hsl(228.5, 77.2%, 51.5%)" stroke-width="1.5"></path><path d="M511.18 554.63L391.75 693.67" stroke="hsl(228.5, 77.2%, 51.5%)" stroke-width="1.5"></path><path d="M693.31 559.68L693.31 559.68" stroke="hsl(228.5, 77.2%, 51.5%)" stroke-width="1.5"></path><path d="M693.31 559.68L689.03 661.19" stroke="hsl(228.5, 77.2%, 51.5%)" stroke-width="1.5"></path><path d="M693.31 559.68L827.75 540.91" stroke="hsl(228.5, 77.2%, 51.5%)" stroke-width="1.5"></path><path d="M689.03 661.19L689.03 661.19" stroke="hsl(228.5, 77.2%, 51.5%)" stroke-width="1.5"></path><path d="M689.03 661.19L855.55 657.38" stroke="hsl(228.5, 77.2%, 51.5%)" stroke-width="1.5"></path><path d="M689.03 661.19L827.75 540.91" stroke="hsl(228.5, 77.2%, 51.5%)" stroke-width="1.5"></path><path d="M689.03 661.19L511.18 554.63" stroke="hsl(228.5, 77.2%, 51.5%)" stroke-width="1.5"></path><path d="M827.75 540.91L827.75 540.91" stroke="hsl(228.5, 77.2%, 51.5%)" stroke-width="1.5"></path><path d="M827.75 540.91L944.16 537.74" stroke="hsl(228.5, 77.2%, 51.5%)" stroke-width="1.5"></path><path d="M827.75 540.91L855.55 657.38" stroke="hsl(228.5, 77.2%, 51.5%)" stroke-width="1.5"></path><path d="M827.75 540.91L846.79 342.93" stroke="hsl(228.5, 77.2%, 51.5%)" stroke-width="1.5"></path><path d="M944.04 376.7L944.04 376.7" stroke="hsl(228.5, 77.2%, 51.5%)" stroke-width="1.5"></path><path d="M944.04 376.7L846.79 342.93" stroke="hsl(228.5, 77.2%, 51.5%)" stroke-width="1.5"></path><path d="M944.04 376.7L993.76 243.98" stroke="hsl(228.5, 77.2%, 51.5%)" stroke-width="1.5"></path><path d="M944.04 376.7L1088.04 351.74" stroke="hsl(228.5, 77.2%, 51.5%)" stroke-width="1.5"></path><path d="M944.04 376.7L944.16 537.74" stroke="hsl(228.5, 77.2%, 51.5%)" stroke-width="1.5"></path><path d="M944.04 376.7L827.75 540.91" stroke="hsl(228.5, 77.2%, 51.5%)" stroke-width="1.5"></path><path d="M944.04 376.7L1113.82 540.27" stroke="hsl(228.5, 77.2%, 51.5%)" stroke-width="1.5"></path><path d="M1161.61 220.01L1161.61 220.01" stroke="hsl(228.5, 77.2%, 51.5%)" stroke-width="1.5"></path><path d="M1161.61 220.01L1311.28 208.32" stroke="hsl(228.5, 77.2%, 51.5%)" stroke-width="1.5"></path><path d="M1161.61 220.01L1088.04 351.74" stroke="hsl(228.5, 77.2%, 51.5%)" stroke-width="1.5"></path><path d="M1088.04 351.74L1088.04 351.74" stroke="hsl(228.5, 77.2%, 51.5%)" stroke-width="1.5"></path><path d="M1088.04 351.74L993.76 243.98" stroke="hsl(228.5, 77.2%, 51.5%)" stroke-width="1.5"></path><path d="M1443.4 -99.68L1443.4 -99.68" stroke="hsl(228.5, 77.2%, 51.5%)" stroke-width="1.5"></path><path d="M1443.4 -99.68L1580.71 -94.26" stroke="hsl(228.5, 77.2%, 51.5%)" stroke-width="1.5"></path><path d="M1443.4 -99.68L1265.36 -104.78" stroke="hsl(228.5, 77.2%, 51.5%)" stroke-width="1.5"></path><path d="M1403.29 392.3L1403.29 392.3" stroke="hsl(228.5, 77.2%, 51.5%)" stroke-width="1.5"></path><path d="M1403.29 392.3L1291.91 356.67" stroke="hsl(228.5, 77.2%, 51.5%)" stroke-width="1.5"></path><path d="M1403.29 392.3L1403.18 260.92" stroke="hsl(228.5, 77.2%, 51.5%)" stroke-width="1.5"></path><path d="M1403.29 392.3L1539.4 342.55" stroke="hsl(228.5, 77.2%, 51.5%)" stroke-width="1.5"></path><path d="M1403.29 392.3L1437.91 562.23" stroke="hsl(228.5, 77.2%, 51.5%)" stroke-width="1.5"></path><path d="M1403.29 392.3L1262.23 509.89" stroke="hsl(228.5, 77.2%, 51.5%)" stroke-width="1.5"></path><path d="M1548.77 506.19L1548.77 506.19" stroke="hsl(228.5, 77.2%, 51.5%)" stroke-width="1.5"></path><path d="M1548.77 506.19L1437.91 562.23" stroke="hsl(228.5, 77.2%, 51.5%)" stroke-width="1.5"></path><path d="M1548.77 506.19L1539.4 342.55" stroke="hsl(228.5, 77.2%, 51.5%)" stroke-width="1.5"></path><path d="M1548.77 506.19L1403.29 392.3" stroke="hsl(228.5, 77.2%, 51.5%)" stroke-width="1.5"></path><path d="M1548.77 506.19L1581.17 688.91" stroke="hsl(228.5, 77.2%, 51.5%)" stroke-width="1.5"></path><path d="M1548.77 506.19L1395.23 687.08" stroke="hsl(228.5, 77.2%, 51.5%)" stroke-width="1.5"></path><path d="M38.98 517.13L38.98 517.13" stroke="hsl(228.5, 77.2%, 51.5%)" stroke-width="1.5"></path><path d="M108.07 677.15L108.07 677.15" stroke="hsl(228.5, 77.2%, 51.5%)" stroke-width="1.5"></path><path d="M108.07 677.15L38.98 517.13" stroke="hsl(228.5, 77.2%, 51.5%)" stroke-width="1.5"></path><path d="M108.07 677.15L197.17 501.17" stroke="hsl(228.5, 77.2%, 51.5%)" stroke-width="1.5"></path><path d="M382.66 536.81L382.66 536.81" stroke="hsl(228.5, 77.2%, 51.5%)" stroke-width="1.5"></path><path d="M382.66 536.81L391.75 693.67" stroke="hsl(228.5, 77.2%, 51.5%)" stroke-width="1.5"></path><path d="M382.66 536.81L223.13 705.82" stroke="hsl(228.5, 77.2%, 51.5%)" stroke-width="1.5"></path><path d="M391.75 693.67L391.75 693.67" stroke="hsl(228.5, 77.2%, 51.5%)" stroke-width="1.5"></path><path d="M846.79 342.93L846.79 342.93" stroke="hsl(228.5, 77.2%, 51.5%)" stroke-width="1.5"></path><path d="M846.79 342.93L993.76 243.98" stroke="hsl(228.5, 77.2%, 51.5%)" stroke-width="1.5"></path><path d="M855.55 657.38L855.55 657.38" stroke="hsl(228.5, 77.2%, 51.5%)" stroke-width="1.5"></path><path d="M855.55 657.38L944.16 537.74" stroke="hsl(228.5, 77.2%, 51.5%)" stroke-width="1.5"></path><path d="M855.55 657.38L693.31 559.68" stroke="hsl(228.5, 77.2%, 51.5%)" stroke-width="1.5"></path><path d="M855.55 657.38L1113.82 540.27" stroke="hsl(228.5, 77.2%, 51.5%)" stroke-width="1.5"></path><path d="M993.76 243.98L993.76 243.98" stroke="hsl(228.5, 77.2%, 51.5%)" stroke-width="1.5"></path><path d="M993.76 243.98L1161.61 220.01" stroke="hsl(228.5, 77.2%, 51.5%)" stroke-width="1.5"></path><path d="M944.16 537.74L944.16 537.74" stroke="hsl(228.5, 77.2%, 51.5%)" stroke-width="1.5"></path><path d="M944.16 537.74L1113.82 540.27" stroke="hsl(228.5, 77.2%, 51.5%)" stroke-width="1.5"></path><path d="M944.16 537.74L846.79 342.93" stroke="hsl(228.5, 77.2%, 51.5%)" stroke-width="1.5"></path><path d="M944.16 537.74L1088.04 351.74" stroke="hsl(228.5, 77.2%, 51.5%)" stroke-width="1.5"></path><path d="M1113.82 540.27L1113.82 540.27" stroke="hsl(228.5, 77.2%, 51.5%)" stroke-width="1.5"></path><path d="M1113.82 540.27L1262.23 509.89" stroke="hsl(228.5, 77.2%, 51.5%)" stroke-width="1.5"></path><path d="M1113.82 540.27L1088.04 351.74" stroke="hsl(228.5, 77.2%, 51.5%)" stroke-width="1.5"></path><path d="M1113.82 540.27L1299.67 652.72" stroke="hsl(228.5, 77.2%, 51.5%)" stroke-width="1.5"></path><path d="M1265.36 -104.78L1265.36 -104.78" stroke="hsl(228.5, 77.2%, 51.5%)" stroke-width="1.5"></path><path d="M1265.36 -104.78L1302.17 44.5" stroke="hsl(228.5, 77.2%, 51.5%)" stroke-width="1.5"></path><path d="M1265.36 -104.78L1459.68 108.14" stroke="hsl(228.5, 77.2%, 51.5%)" stroke-width="1.5"></path><path d="M1302.17 44.5L1302.17 44.5" stroke="hsl(228.5, 77.2%, 51.5%)" stroke-width="1.5"></path><path d="M1302.17 44.5L1311.28 208.32" stroke="hsl(228.5, 77.2%, 51.5%)" stroke-width="1.5"></path><path d="M1302.17 44.5L1459.68 108.14" stroke="hsl(228.5, 77.2%, 51.5%)" stroke-width="1.5"></path><path d="M1302.17 44.5L1443.4 -99.68" stroke="hsl(228.5, 77.2%, 51.5%)" stroke-width="1.5"></path><path d="M1302.17 44.5L1161.61 220.01" stroke="hsl(228.5, 77.2%, 51.5%)" stroke-width="1.5"></path><path d="M1302.17 44.5L1403.18 260.92" stroke="hsl(228.5, 77.2%, 51.5%)" stroke-width="1.5"></path><path d="M1311.28 208.32L1311.28 208.32" stroke="hsl(228.5, 77.2%, 51.5%)" stroke-width="1.5"></path><path d="M1311.28 208.32L1403.18 260.92" stroke="hsl(228.5, 77.2%, 51.5%)" stroke-width="1.5"></path><path d="M1311.28 208.32L1291.91 356.67" stroke="hsl(228.5, 77.2%, 51.5%)" stroke-width="1.5"></path><path d="M1291.91 356.67L1291.91 356.67" stroke="hsl(228.5, 77.2%, 51.5%)" stroke-width="1.5"></path><path d="M1291.91 356.67L1403.18 260.92" stroke="hsl(228.5, 77.2%, 51.5%)" stroke-width="1.5"></path><path d="M1262.23 509.89L1262.23 509.89" stroke="hsl(228.5, 77.2%, 51.5%)" stroke-width="1.5"></path><path d="M1262.23 509.89L1299.67 652.72" stroke="hsl(228.5, 77.2%, 51.5%)" stroke-width="1.5"></path><path d="M1262.23 509.89L1291.91 356.67" stroke="hsl(228.5, 77.2%, 51.5%)" stroke-width="1.5"></path><path d="M1262.23 509.89L1437.91 562.23" stroke="hsl(228.5, 77.2%, 51.5%)" stroke-width="1.5"></path><path d="M1299.67 652.72L1299.67 652.72" stroke="hsl(228.5, 77.2%, 51.5%)" stroke-width="1.5"></path><path d="M1299.67 652.72L1395.23 687.08" stroke="hsl(228.5, 77.2%, 51.5%)" stroke-width="1.5"></path><path d="M1299.67 652.72L1437.91 562.23" stroke="hsl(228.5, 77.2%, 51.5%)" stroke-width="1.5"></path><path d="M1459.68 108.14L1459.68 108.14" stroke="hsl(228.5, 77.2%, 51.5%)" stroke-width="1.5"></path><path d="M1459.68 108.14L1576.82 38.22" stroke="hsl(228.5, 77.2%, 51.5%)" stroke-width="1.5"></path><path d="M1459.68 108.14L1403.18 260.92" stroke="hsl(228.5, 77.2%, 51.5%)" stroke-width="1.5"></path><path d="M1459.68 108.14L1561.95 238.62" stroke="hsl(228.5, 77.2%, 51.5%)" stroke-width="1.5"></path><path d="M1459.68 108.14L1311.28 208.32" stroke="hsl(228.5, 77.2%, 51.5%)" stroke-width="1.5"></path><path d="M1403.18 260.92L1403.18 260.92" stroke="hsl(228.5, 77.2%, 51.5%)" stroke-width="1.5"></path><path d="M1437.91 562.23L1437.91 562.23" stroke="hsl(228.5, 77.2%, 51.5%)" stroke-width="1.5"></path><path d="M1437.91 562.23L1395.23 687.08" stroke="hsl(228.5, 77.2%, 51.5%)" stroke-width="1.5"></path><path d="M1395.23 687.08L1395.23 687.08" stroke="hsl(228.5, 77.2%, 51.5%)" stroke-width="1.5"></path><path d="M1395.23 687.08L1581.17 688.91" stroke="hsl(228.5, 77.2%, 51.5%)" stroke-width="1.5"></path><path d="M1395.23 687.08L1262.23 509.89" stroke="hsl(228.5, 77.2%, 51.5%)" stroke-width="1.5"></path><path d="M1580.71 -94.26L1580.71 -94.26" stroke="hsl(228.5, 77.2%, 51.5%)" stroke-width="1.5"></path><path d="M1580.71 -94.26L1576.82 38.22" stroke="hsl(228.5, 77.2%, 51.5%)" stroke-width="1.5"></path><path d="M1576.82 38.22L1576.82 38.22" stroke="hsl(228.5, 77.2%, 51.5%)" stroke-width="1.5"></path><path d="M1561.95 238.62L1561.95 238.62" stroke="hsl(228.5, 77.2%, 51.5%)" stroke-width="1.5"></path><path d="M1561.95 238.62L1539.4 342.55" stroke="hsl(228.5, 77.2%, 51.5%)" stroke-width="1.5"></path><path d="M1561.95 238.62L1403.18 260.92" stroke="hsl(228.5, 77.2%, 51.5%)" stroke-width="1.5"></path><path d="M1539.4 342.55L1539.4 342.55" stroke="hsl(228.5, 77.2%, 51.5%)" stroke-width="1.5"></path><path d="M1581.17 688.91L1581.17 688.91" stroke="hsl(228.5, 77.2%, 51.5%)" stroke-width="1.5"></path><path d="M1581.17 688.91L1437.91 562.23" stroke="hsl(228.5, 77.2%, 51.5%)" stroke-width="1.5"></path><path d="M1581.17 688.91L1299.67 652.72" stroke="hsl(228.5, 77.2%, 51.5%)" stroke-width="1.5"></path><path d="M1581.17 688.91L1403.29 392.3" stroke="hsl(228.5, 77.2%, 51.5%)" stroke-width="1.5"></path><path d="M1581.17 688.91L1539.4 342.55" stroke="hsl(228.5, 77.2%, 51.5%)" stroke-width="1.5"></path><circle r="25" cx="-45.52" cy="503.4" fill="url(#SvgjsRadialGradient1001)"></circle><circle r="25" cx="-61.4" cy="665.89" fill="url(#SvgjsRadialGradient1001)"></circle><circle r="25" cx="197.17" cy="501.17" fill="url(#SvgjsRadialGradient1001)"></circle><circle r="25" cx="223.13" cy="705.82" fill="url(#SvgjsRadialGradient1001)"></circle><circle r="25" cx="511.18" cy="554.63" fill="url(#SvgjsRadialGradient1001)"></circle><circle r="25" cx="693.31" cy="559.68" fill="url(#SvgjsRadialGradient1001)"></circle><circle r="25" cx="689.03" cy="661.19" fill="url(#SvgjsRadialGradient1001)"></circle><circle r="25" cx="827.75" cy="540.91" fill="url(#SvgjsRadialGradient1001)"></circle><circle r="25" cx="944.04" cy="376.7" fill="url(#SvgjsRadialGradient1001)"></circle><circle r="25" cx="1161.61" cy="220.01" fill="url(#SvgjsRadialGradient1001)"></circle><circle r="25" cx="1088.04" cy="351.74" fill="url(#SvgjsRadialGradient1001)"></circle><circle r="25" cx="1443.4" cy="-99.68" fill="url(#SvgjsRadialGradient1001)"></circle><circle r="25" cx="1403.29" cy="392.3" fill="url(#SvgjsRadialGradient1001)"></circle><circle r="25" cx="1548.77" cy="506.19" fill="url(#SvgjsRadialGradient1001)"></circle><circle r="5" cx="38.98" cy="517.13" fill="#8b9ad9"></circle><circle r="5" cx="108.07" cy="677.15" fill="#8b9ad9"></circle><circle r="5" cx="382.66" cy="536.81" fill="#8b9ad9"></circle><circle r="5" cx="391.75" cy="693.67" fill="#8b9ad9"></circle><circle r="5" cx="846.79" cy="342.93" fill="#8b9ad9"></circle><circle r="5" cx="855.55" cy="657.38" fill="#8b9ad9"></circle><circle r="5" cx="993.76" cy="243.98" fill="#8b9ad9"></circle><circle r="5" cx="944.16" cy="537.74" fill="#8b9ad9"></circle><circle r="5" cx="1113.82" cy="540.27" fill="#8b9ad9"></circle><circle r="5" cx="1265.36" cy="-104.78" fill="#8b9ad9"></circle><circle r="5" cx="1302.17" cy="44.5" fill="#8b9ad9"></circle><circle r="5" cx="1311.28" cy="208.32" fill="#8b9ad9"></circle><circle r="5" cx="1291.91" cy="356.67" fill="#8b9ad9"></circle><circle r="5" cx="1262.23" cy="509.89" fill="#8b9ad9"></circle><circle r="5" cx="1299.67" cy="652.72" fill="#8b9ad9"></circle><circle r="5" cx="1459.68" cy="108.14" fill="#8b9ad9"></circle><circle r="5" cx="1403.18" cy="260.92" fill="#8b9ad9"></circle><circle r="5" cx="1437.91" cy="562.23" fill="#8b9ad9"></circle><circle r="5" cx="1395.23" cy="687.08" fill="#8b9ad9"></circle><circle r="5" cx="1580.71" cy="-94.26" fill="#8b9ad9"></circle><circle r="5" cx="1576.82" cy="38.22" fill="#8b9ad9"></circle><circle r="5" cx="1561.95" cy="238.62" fill="#8b9ad9"></circle><circle r="5" cx="1539.4" cy="342.55" fill="#8b9ad9"></circle><circle r="5" cx="1581.17" cy="688.91" fill="#8b9ad9"></circle></g><defs><mask id="SvgjsMask1000"><rect width="1440" height="560" fill="#ffffff"></rect></mask><radialGradient id="SvgjsRadialGradient1001"><stop stop-color="#ffffff" offset="0.1"></stop><stop stop-color="#1735b3" offset="0.2"></stop><stop stop-color="rgba(23, 53, 179, 0)" offset="1"></stop></radialGradient></defs></svg>